<?xml version="1.0" encoding="utf-8"?>
<!-- Generator: Adobe Illustrator 16.0.3, SVG Export Plug-In . SVG Version: 6.00 Build 0)  -->
<!DOCTYPE svg PUBLIC "-//W3C//DTD SVG 1.1//EN" "http://www.w3.org/Graphics/SVG/1.1/DTD/svg11.dtd">
<svg version="1.1" id="Layer_1" xmlns="http://www.w3.org/2000/svg" xmlns:xlink="http://www.w3.org/1999/xlink" x="0px" y="0px"
	 width="95px" height="95px" viewBox="208.5 0 95 95" enable-background="new 208.5 0 95 95" xml:space="preserve">
<g>
	<path fill="#30BCAF" d="M278.233,35.99l-0.119-0.23l0.138-0.219c1.039-1.67,1.565-3.226,1.565-4.625
		c0.002-2.145-0.831-4.162-2.348-5.68c-1.515-1.518-3.533-2.355-5.683-2.356c-1.812,0-3.589,0.622-5.005,1.75l-0.217,0.173
		l-0.254-0.114c-3.259-1.469-6.723-2.213-10.296-2.213c-4.517,0-8.954,1.222-12.833,3.534l-0.205,0.122l-0.217-0.099
		c-1.058-0.484-2.18-0.729-3.333-0.729c-3.138,0-6.007,1.843-7.311,4.696c-0.483,1.056-0.728,2.181-0.727,3.343
		c0,1.318,0.469,2.779,1.395,4.341l0.115,0.194l-0.085,0.209c-1.221,3.002-1.836,6.172-1.83,9.419
		c-0.131,6.304,2.483,12.666,7.175,17.456c4.707,4.806,11.037,7.563,17.366,7.563c0.158,0,0.314-0.002,0.487-0.005
		c0.089,0.001,0.179,0.001,0.269,0.001c5.058,0,10.196-1.716,14.466-4.833c4.274-3.12,7.479-7.498,9.021-12.326
		C281.866,49.001,281.307,41.94,278.233,35.99z M234.418,51.96c0.101,0.111,0.231,0.189,0.377,0.226l3.03,0.757l0.091,0.094
		c0.949,0.981,1.744,1.969,1.934,2.404l0.031,0.07l0.006,0.077c0.075,0.947,1.46,1.371,2.997,1.755
		c0.841,0.209,1.68,0.372,2.105,0.45l0.14,0.025l1.837,1.837l-2.122,3.537c-0.049,0.083-0.083,0.173-0.098,0.269l-0.695,4.277
		l-0.582-0.367c-5.621-3.551-9.494-9.346-10.628-15.897l-0.266-1.539L234.418,51.96z M246.219,63.849l2.352-3.92
		c0.179-0.299,0.132-0.68-0.114-0.926l-2.426-2.427c-0.112-0.112-0.255-0.186-0.412-0.212c-1.636-0.273-3.378-0.714-4.052-1.025
		l-0.178-0.082l-0.062-0.185c-0.18-0.532-0.772-1.545-2.576-3.349c-0.098-0.098-0.219-0.167-0.353-0.2l-3.013-0.753l-2.883-3.167
		l0-0.177c0.003-2.467,0.394-4.907,1.163-7.252l0.258-0.788l0.526,0.641c0.242,0.294,0.502,0.597,0.774,0.899
		c1.141,1.265,2.391,2.446,3.723,3.518c0.2,0.123,0.358,0.181,0.496,0.181c0.273,0,0.587-0.256,1.07-0.678l0.56-0.489l1.258,5.032
		c0.042,0.168,0.142,0.319,0.281,0.423l3.236,2.427c0.034,0.026,0.073,0.05,0.115,0.071l7.57,3.785l-0.695,3.477
		c-0.01,0.048-0.015,0.098-0.015,0.148v4.044c0,0.289,0.161,0.549,0.419,0.678l4.434,2.217v4.385c0,0.07,0.01,0.14,0.029,0.208
		l0.168,0.583l-0.57,0.031c-0.44,0.024-0.876,0.037-1.295,0.037h-0.027c-3.519,0-7.051-0.813-10.215-2.351l-0.305-0.148
		L246.219,63.849z M259.39,70.764l-0.083-0.327l-0.114-0.399v-4.746c0-0.29-0.16-0.549-0.419-0.679l-4.434-2.216v-3.501l0.908-4.538
		l-8.544-4.272l-2.965-2.224l-1.397-5.586l0.182-0.182c0.387-0.387,0.76-0.779,1.108-1.166c2.544-2.827,3.834-5.379,3.834-7.585
		c0.001-2.225-0.935-4.368-2.566-5.88l-0.47-0.435l0.566-0.3c3.373-1.79,7.173-2.736,10.991-2.736h0.078
		c3.054,0,6.033,0.588,8.857,1.749l0.519,0.213l-0.315,0.463c-0.906,1.333-1.384,2.887-1.382,4.495
		c0.011,0.791,0.153,1.568,0.426,2.31l0.141,0.382l-5.404,2.702c-0.094,0.047-0.176,0.112-0.243,0.193l-3.66,4.392l-2.698-1.349
		c-0.104-0.052-0.222-0.08-0.339-0.08c-0.097,0-0.191,0.019-0.281,0.054l-4.044,1.618c-0.339,0.136-0.534,0.495-0.461,0.853
		l0.809,4.044c0.04,0.199,0.155,0.37,0.323,0.482l4.853,3.235c0.091,0.061,0.197,0.102,0.305,0.118l1.917,0.296l-0.09,0.464
		c-0.096,0.5-0.146,1.012-0.146,1.52c0.002,0.474,0.058,0.95,0.166,1.413l0.202,0.859l0.39,0.857
		c0.632,1.388,1.667,2.887,3.076,4.456c1.148,1.272,2.406,2.459,3.738,3.529c0.133,0.104,0.298,0.16,0.466,0.16
		s0.33-0.055,0.46-0.155c1.335-1.072,2.594-2.26,3.744-3.533c0.558-0.621,1.061-1.234,1.494-1.823l0.172-0.233l4.978,0.996
		l0.918,2.754l-0.145,0.19c-3.662,4.871-8.992,8.097-15.006,9.083L259.39,70.764z M271.779,24.32l0.002,0.076
		c3.591,0.004,6.516,2.929,6.521,6.521c0,3.752-5.186,8.397-6.226,9.29l-0.299,0.257l-0.297-0.26
		c-2.295-2.011-6.155-5.891-6.221-9.287c0.004-3.591,2.929-6.517,6.521-6.521L271.779,24.32z M263.184,45.625v-0.076l0.002,0.076
		c3.591,0.004,6.516,2.929,6.521,6.521c0,3.751-5.186,8.396-6.225,9.29l-0.297,0.255l-0.296-0.255
		c-1.04-0.893-6.226-5.538-6.226-9.29C256.668,48.554,259.593,45.629,263.184,45.625z M268.404,39.384l0.436,0.446l-1.038,0.519
		c-0.283,0.142-0.449,0.448-0.415,0.762l0.496,4.459l-0.772-0.434c-1.199-0.673-2.556-1.03-3.922-1.03
		c-2.902,0-5.586,1.57-7.005,4.097c-0.04,0.071-0.079,0.143-0.117,0.216l-0.151,0.289l-2.052-0.317l-4.452-2.968l-0.624-3.118
		l3.142-1.257l2.931,1.465c0.104,0.053,0.222,0.081,0.338,0.081c0.226,0,0.438-0.1,0.583-0.273l3.942-4.731l5.236-2.618l0.218,0.354
		c0.694,1.128,1.501,2.196,2.398,3.174C267.846,38.799,268.124,39.096,268.404,39.384z M270.223,55.771
		c0.54-1.052,0.865-2.063,0.966-3.003l0.051-0.48l4.625,0.771l2.304,2.304l-0.101,0.273c-0.423,1.146-0.939,2.268-1.536,3.332
		l-0.503,0.898l-0.698-2.094c-0.085-0.257-0.304-0.45-0.57-0.504l-4.812-0.962L270.223,55.771z M278.879,52.947l-0.188,0.793
		l-1.927-1.926c-0.112-0.112-0.254-0.186-0.411-0.211l-4.554-0.759l-1.04-1.387l-0.023-0.063c-0.259-0.707-0.616-1.374-1.062-1.981
		l-0.072-0.098l-0.649-5.846l1.067-0.534l0.23,0.203c0.608,0.536,1.019,0.857,1.063,0.892c0.133,0.103,0.299,0.16,0.466,0.16
		c0.168,0,0.331-0.055,0.46-0.155c1.336-1.073,2.596-2.262,3.744-3.533c0.238-0.265,0.468-0.531,0.684-0.791l0.466-0.56l0.3,0.664
		c1.381,3.064,2.081,6.322,2.081,9.683C279.516,49.33,279.302,51.164,278.879,52.947z M239.428,26.822
		c3.591,0.004,6.517,2.929,6.521,6.521c0,2.907-3.095,6.333-4.936,8.112c-0.03,0.024-0.059,0.052-0.107,0.104
		c-0.395,0.377-0.792,0.738-1.181,1.072l-0.296,0.255l-0.296-0.254c-1.04-0.893-6.226-5.536-6.226-9.29
		C232.91,29.751,235.835,26.826,239.428,26.822l-0.001-0.076L239.428,26.822z"/>
	<path fill="#30BCAF" d="M235.838,33.343c0,1.979,1.61,3.589,3.588,3.589c1.977-0.002,3.587-1.612,3.59-3.589
		c0-1.979-1.61-3.589-3.589-3.589S235.838,31.364,235.838,33.343z M239.427,31.271c1.143,0,2.073,0.93,2.073,2.073
		c0,1.143-0.93,2.072-2.073,2.072c-1.141-0.001-2.071-0.931-2.072-2.072C237.355,32.2,238.285,31.271,239.427,31.271z"/>
	<path fill="#30BCAF" d="M271.781,34.506c1.979,0,3.588-1.611,3.588-3.589c0-1.979-1.609-3.589-3.589-3.589s-3.59,1.61-3.59,3.588
		C268.193,32.893,269.804,34.503,271.781,34.506z M271.78,28.844c1.143,0,2.072,0.93,2.072,2.072c0,1.143-0.93,2.073-2.072,2.073
		s-2.073-0.93-2.073-2.073C269.709,29.775,270.639,28.845,271.78,28.844l-0.001-0.076L271.78,28.844z"/>
	<path fill="#30BCAF" d="M266.773,52.146c0-1.979-1.61-3.589-3.589-3.589c-1.979,0-3.589,1.61-3.589,3.589s1.609,3.589,3.588,3.589
		C265.161,55.733,266.771,54.123,266.773,52.146z M263.185,50.073c1.143,0,2.072,0.93,2.072,2.073c0,1.143-0.93,2.072-2.073,2.072
		c-1.141-0.001-2.07-0.931-2.071-2.072C261.112,51.003,262.042,50.073,263.185,50.073z"/>
</g>
<path fill="#30BCAF" d="M256,94.5c-25.916,0-47-21.084-47-47s21.084-47,47-47s47,21.084,47,47S281.916,94.5,256,94.5z M256,1.977
	c-25.102,0-45.523,20.421-45.523,45.523S230.898,93.023,256,93.023c25.102,0,45.523-20.421,45.523-45.523S281.102,1.977,256,1.977z"
	/>
</svg>
