<?xml version="1.0" encoding="utf-8"?>
<!-- Generator: Adobe Illustrator 16.0.3, SVG Export Plug-In . SVG Version: 6.00 Build 0)  -->
<!DOCTYPE svg PUBLIC "-//W3C//DTD SVG 1.1//EN" "http://www.w3.org/Graphics/SVG/1.1/DTD/svg11.dtd">
<svg version="1.1" id="Layer_1" xmlns="http://www.w3.org/2000/svg" xmlns:xlink="http://www.w3.org/1999/xlink" x="0px" y="0px"
	 width="95px" height="95px" viewBox="208.5 0 95 95" enable-background="new 208.5 0 95 95" xml:space="preserve">
<path fill="#30BCAF" d="M256,94.5c-25.916,0-47-21.084-47-47s21.084-47,47-47s47,21.084,47,47S281.916,94.5,256,94.5z M256,1.977
	c-25.102,0-45.523,20.421-45.523,45.523S230.898,93.023,256,93.023c25.102,0,45.523-20.421,45.523-45.523S281.102,1.977,256,1.977z"
	/>
<g>
	<path fill="#30BCAF" d="M271.516,60.047c-2.603,0-4.721-2.118-4.721-4.721c0-2.604,2.118-4.722,4.721-4.722
		c1.29,0,2.539,0.523,3.429,1.435c0.864,0.887,1.324,2.052,1.293,3.282C276.237,57.928,274.119,60.047,271.516,60.047z
		 M271.516,51.64c-2.031,0-3.685,1.654-3.685,3.687c0,2.032,1.653,3.686,3.685,3.686c2.033,0,3.687-1.654,3.687-3.686
		C275.202,53.294,273.549,51.64,271.516,51.64z"/>
	<path fill="#30BCAF" d="M268.919,66.541c-0.299,0-0.553-0.253-0.553-0.552v-2.212l-1.507,1.597c-0.089,0.089-0.239,0.143-0.4,0.143
		c-0.166,0-0.313-0.053-0.406-0.147l-4.162-4.162c-0.15-0.208-0.193-0.563-0.007-0.749l1.139-1.313l-1.799-0.257
		c-0.234-0.047-0.443-0.306-0.443-0.554v-5.878c0-0.299,0.253-0.551,0.551-0.551h1.777l-1.209-1.554
		c-0.132-0.177-0.159-0.48,0.052-0.692l4.171-4.17c0.093-0.093,0.228-0.146,0.37-0.146c0.144,0,0.278,0.054,0.371,0.146l1.572,1.398
		v-1.95c0-0.299,0.253-0.551,0.552-0.551h5.811c0.298,0,0.55,0.252,0.55,0.551v2.37l1.522-1.7l0.008-0.012
		c0.082-0.124,0.207-0.184,0.38-0.184c0.164,0,0.313,0.053,0.405,0.146l4.17,4.169c0.093,0.093,0.146,0.241,0.146,0.406
		c0,0.164-0.053,0.312-0.146,0.405l-1.504,1.504h2.123c0.154,0,0.296,0.049,0.398,0.138c0.1,0.088,0.153,0.208,0.153,0.345v5.878
		c0,0.299-0.252,0.552-0.552,0.552h-2.394l1.727,1.454l0.01,0.006c0.123,0.083,0.184,0.207,0.184,0.38
		c0,0.165-0.053,0.312-0.146,0.405l-4.17,4.169c-0.093,0.093-0.241,0.146-0.405,0.146s-0.313-0.053-0.404-0.146l-1.505-1.504v2.124
		c0,0.299-0.253,0.552-0.551,0.552H268.919L268.919,66.541z M268.868,61.746c0.037,0,0.134,0.005,0.221,0.059
		c0.07,0.033,0.115,0.068,0.135,0.102c0.012,0.019,0.119,0.207,0.119,0.207c0.026,0.062,0.06,0.154,0.06,0.185v3.003h4.843v-2.935
		c0-0.093,0.011-0.119,0.02-0.141l0.007-0.015c0.002-0.009,0.085-0.312,0.289-0.354c0.037-0.006,0.155-0.024,0.211-0.024
		c0.06,0,0.225,0.036,0.284,0.049c0.004,0.005,0.058,0.059,0.077,0.079l2.057,2.057l3.369-3.369l-2.314-2.025
		c-0.049-0.055-0.082-0.139-0.104-0.189c-0.031-0.077-0.085-0.276-0.011-0.383l0.008-0.013c0.065-0.115,0.146-0.179,0.241-0.188
		l3.659,0v-4.775h-2.867c-0.297,0-0.549-0.253-0.55-0.552c-0.002-0.135,0.151-0.359,0.409-0.601l1.792-1.792l-3.367-3.366
		l-1.986,2.207c-0.087,0.085-0.237,0.139-0.398,0.139h-0.068c-0.299,0-0.552-0.252-0.552-0.551v-3.14h-4.844v2.593
		c0,0.298-0.25,0.549-0.547,0.551c-0.017-0.002-0.044-0.004-0.058-0.006c-0.042-0.004-0.052-0.004-0.119-0.036
		c-0.018-0.008-0.035-0.016-0.053-0.023c-0.037-0.016-0.073-0.031-0.124-0.059c-0.025-0.015-0.054-0.031-0.083-0.047l-1.968-1.749
		l-3.468,3.467l1.409,1.928l0.011,0.011c0.041,0.041,0.077,0.144,0.096,0.198l0.009,0.026c0.009,0.023,0.014,0.037,0.026,0.08
		c0.015,0.053,0.016,0.115,0.016,0.169c0,0.299-0.253,0.551-0.552,0.551h-2.251v4.905l2.107,0.075
		c0.075,0.004,0.296,0.036,0.39,0.127l0.022,0.021c0.045,0.041,0.083,0.076,0.092,0.159c0.006,0.063-0.008,0.254-0.013,0.323
		c-0.009,0.14-0.125,0.312-0.126,0.313l-1.452,1.669l3.421,3.42l2.056-2.129c0.008-0.008,0.021-0.018,0.034-0.028
		c0.011-0.01,0.023-0.021,0.035-0.031c0.013-0.011,0.022-0.017,0.034-0.024c0.014-0.008,0.026-0.016,0.04-0.025l0.074-0.045
		c0.062-0.026,0.154-0.058,0.185-0.058L268.868,61.746z"/>
	<path fill="#30BCAF" d="M238.229,69.275c-0.439,0-0.824-0.386-0.824-0.825c0-0.44,0.385-0.826,0.824-0.826h2.778l2.5-4.091h-11.088
		c-1.887,0-3.423-1.536-3.423-3.422V29.147c0-1.887,1.536-3.422,3.423-3.422h37.32c1.888,0,3.422,1.536,3.422,3.422v12.508
		c0,0.439-0.386,0.826-0.825,0.826c-0.438,0-0.824-0.386-0.824-0.826V29.147c0-0.96-0.812-1.772-1.772-1.772h-37.389
		c-0.961,0-1.772,0.812-1.772,1.772v25.49h2.656V32.633c0-1.472,1.198-2.671,2.671-2.671h30.554c1.472,0,2.669,1.199,2.669,2.671
		v9.159c0,0.439-0.385,0.825-0.824,0.825s-0.825-0.386-0.825-0.825v-9.091c0-0.493-0.41-1.021-1.021-1.021h-30.553
		c-0.493,0-1.021,0.41-1.021,1.021v2.183h20.773c0.439,0,0.825,0.385,0.825,0.825c0,0.439-0.386,0.825-0.825,0.825h-20.773v18.171
		h23.439c0.439,0,0.824,0.386,0.824,0.825c0,0.44-0.385,0.826-0.824,0.826h-27.678v3.755c0,0.96,0.812,1.772,1.772,1.772h27.888
		c0.492,0,0.894,0.37,0.894,0.825c0,0.439-0.386,0.825-0.825,0.825h-2.606l1.067,1.806c0.221,0.388,0.101,0.935-0.254,1.151
		c-0.034,0.011-0.066,0.023-0.098,0.035c-0.146,0.052-0.237,0.085-0.364,0.085c-0.184,0-0.52-0.05-0.718-0.381l-1.631-2.695H245.43
		l-2.5,4.091h19.838c0.471,0,0.825,0.355,0.825,0.826c0,0.439-0.386,0.825-0.825,0.825H238.229L238.229,69.275z"/>
	<path fill="#30BCAF" d="M258.803,36.398c-0.366,0-0.688-0.322-0.688-0.688c0-0.453,0.346-0.688,0.688-0.688
		c0.366,0,0.688,0.321,0.688,0.688C259.491,36.076,259.169,36.398,258.803,36.398z"/>
	<path fill="#30BCAF" d="M262.083,36.398c-0.366,0-0.688-0.322-0.688-0.688c0-0.453,0.347-0.688,0.688-0.688
		c0.367,0,0.689,0.321,0.689,0.688C262.772,36.076,262.45,36.398,262.083,36.398z"/>
	<path fill="#30BCAF" d="M265.364,36.398c-0.367,0-0.688-0.322-0.688-0.688c0-0.391,0.257-0.696,0.584-0.696
		c0.024,0,0.051,0.002,0.075,0.006l0.02,0.001c0.375,0,0.697,0.321,0.697,0.688C266.053,36.076,265.73,36.398,265.364,36.398z"/>
	<path fill="#30BCAF" d="M240.416,51.982c-0.439,0-0.825-0.386-0.825-0.825V40.972c0-0.47,0.354-0.825,0.825-0.825
		c0.439,0,0.825,0.385,0.825,0.825v10.185C241.241,51.596,240.855,51.982,240.416,51.982z"/>
	<path fill="#30BCAF" d="M245.542,51.982c-0.439,0-0.824-0.386-0.824-0.825v-6.083c0-0.471,0.354-0.825,0.824-0.825
		c0.44,0,0.825,0.385,0.825,0.825v6.083C246.367,51.596,245.982,51.982,245.542,51.982z"/>
	<path fill="#30BCAF" d="M250.669,51.982c-0.439,0-0.825-0.386-0.825-0.825V40.972c0-0.47,0.354-0.825,0.825-0.825
		c0.439,0,0.825,0.385,0.825,0.825v10.185C251.494,51.596,251.108,51.982,250.669,51.982z"/>
	<path fill="#30BCAF" d="M255.795,51.982c-0.439,0-0.824-0.386-0.824-0.825v-5.4c0-0.439,0.385-0.825,0.824-0.825
		c0.501,0,0.825,0.325,0.825,0.825v5.4C256.62,51.596,256.234,51.982,255.795,51.982z"/>
</g>
</svg>
